<mxfile host="app.diagrams.net" agent="Mozilla/5.0 (Windows NT 10.0; Win64; x64) AppleWebKit/537.36 (KHTML, like Gecko) Chrome/131.0.0.0 Safari/537.36" version="25.0.3">
  <diagram name="Page-1" id="4bpc5wNuIUCDQcrMmiJm">
    <mxGraphModel dx="1500" dy="1561" grid="1" gridSize="10" guides="1" tooltips="1" connect="1" arrows="1" fold="1" page="0" pageScale="1" pageWidth="827" pageHeight="1169" math="0" shadow="0">
      <root>
        <mxCell id="0" />
        <mxCell id="1" parent="0" />
        <mxCell id="-ey-kE-NINVphvTozE8o-1" value="Visitor" style="shape=umlActor;verticalLabelPosition=bottom;verticalAlign=top;html=1;outlineConnect=0;" parent="1" vertex="1">
          <mxGeometry x="555" y="-360" width="42" height="80" as="geometry" />
        </mxCell>
        <mxCell id="-ey-kE-NINVphvTozE8o-2" value="" style="endArrow=none;html=1;rounded=0;" parent="1" edge="1">
          <mxGeometry width="50" height="50" relative="1" as="geometry">
            <mxPoint x="635" y="320" as="sourcePoint" />
            <mxPoint x="635" y="-400" as="targetPoint" />
          </mxGeometry>
        </mxCell>
        <mxCell id="-ey-kE-NINVphvTozE8o-3" value="Select and click&lt;div&gt;&amp;nbsp;Game&lt;/div&gt;" style="ellipse;whiteSpace=wrap;html=1;" parent="1" vertex="1">
          <mxGeometry x="647" y="-360" width="122" height="80" as="geometry" />
        </mxCell>
        <mxCell id="-ey-kE-NINVphvTozE8o-4" value="" style="endArrow=none;html=1;rounded=0;exitX=0.5;exitY=0.5;exitDx=0;exitDy=0;exitPerimeter=0;entryX=0;entryY=0.5;entryDx=0;entryDy=0;" parent="1" source="-ey-kE-NINVphvTozE8o-1" target="-ey-kE-NINVphvTozE8o-3" edge="1">
          <mxGeometry width="50" height="50" relative="1" as="geometry">
            <mxPoint x="715" y="-140" as="sourcePoint" />
            <mxPoint x="765" y="-190" as="targetPoint" />
          </mxGeometry>
        </mxCell>
        <mxCell id="-ey-kE-NINVphvTozE8o-5" value="&amp;lt;&amp;lt;include&amp;gt;&amp;gt;" style="endArrow=open;endSize=12;dashed=1;html=1;rounded=0;exitX=1;exitY=0.5;exitDx=0;exitDy=0;entryX=0;entryY=0.5;entryDx=0;entryDy=0;" parent="1" source="-ey-kE-NINVphvTozE8o-3" target="-ey-kE-NINVphvTozE8o-6" edge="1">
          <mxGeometry width="160" relative="1" as="geometry">
            <mxPoint x="768.999999999997" y="-320" as="sourcePoint" />
            <mxPoint x="885" y="-350" as="targetPoint" />
          </mxGeometry>
        </mxCell>
        <mxCell id="-ey-kE-NINVphvTozE8o-6" value="Show game popup" style="ellipse;whiteSpace=wrap;html=1;" parent="1" vertex="1">
          <mxGeometry x="855" y="-360" width="122" height="80" as="geometry" />
        </mxCell>
        <mxCell id="-ey-kE-NINVphvTozE8o-7" value="&lt;font&gt;As a user,&amp;nbsp;&lt;/font&gt;&lt;div&gt;&lt;font&gt;I want to see and know&amp;nbsp;&lt;/font&gt;&lt;/div&gt;&lt;div&gt;&lt;font&gt;about&lt;/font&gt;&lt;font style=&quot;background-color: initial;&quot;&gt;&amp;nbsp;the games&amp;nbsp;&lt;/font&gt;&lt;span style=&quot;background-color: initial;&quot;&gt;that&amp;nbsp;&lt;/span&gt;&lt;/div&gt;&lt;div&gt;&lt;span style=&quot;background-color: initial;&quot;&gt;the developer&amp;nbsp;&lt;/span&gt;&lt;span style=&quot;background-color: initial;&quot;&gt;has made&lt;/span&gt;&lt;/div&gt;" style="text;html=1;align=center;verticalAlign=middle;resizable=0;points=[];autosize=1;strokeColor=default;fillColor=none;strokeWidth=1;perimeterSpacing=0;" parent="1" vertex="1">
          <mxGeometry x="380" y="-355" width="150" height="70" as="geometry" />
        </mxCell>
        <mxCell id="-ey-kE-NINVphvTozE8o-8" value="Visitor" style="shape=umlActor;verticalLabelPosition=bottom;verticalAlign=top;html=1;outlineConnect=0;" parent="1" vertex="1">
          <mxGeometry x="555" y="-70" width="42" height="80" as="geometry" />
        </mxCell>
        <mxCell id="-ey-kE-NINVphvTozE8o-9" value="Click Social media Icon" style="ellipse;whiteSpace=wrap;html=1;" parent="1" vertex="1">
          <mxGeometry x="715" y="-70" width="122" height="80" as="geometry" />
        </mxCell>
        <mxCell id="-ey-kE-NINVphvTozE8o-10" value="" style="endArrow=none;html=1;rounded=0;exitX=0.5;exitY=0.5;exitDx=0;exitDy=0;exitPerimeter=0;entryX=0;entryY=0.5;entryDx=0;entryDy=0;" parent="1" source="-ey-kE-NINVphvTozE8o-8" target="-ey-kE-NINVphvTozE8o-9" edge="1">
          <mxGeometry width="50" height="50" relative="1" as="geometry">
            <mxPoint x="715" y="150" as="sourcePoint" />
            <mxPoint x="765" y="100" as="targetPoint" />
          </mxGeometry>
        </mxCell>
        <mxCell id="-ey-kE-NINVphvTozE8o-11" value="" style="endArrow=open;endSize=12;dashed=1;html=1;rounded=0;exitX=1;exitY=0.5;exitDx=0;exitDy=0;entryX=0;entryY=0.5;entryDx=0;entryDy=0;" parent="1" source="-ey-kE-NINVphvTozE8o-9" target="-ey-kE-NINVphvTozE8o-12" edge="1">
          <mxGeometry x="-0.1864" y="-120" width="160" relative="1" as="geometry">
            <mxPoint x="855" y="-30.5" as="sourcePoint" />
            <mxPoint x="955" y="-30" as="targetPoint" />
            <mxPoint x="1" as="offset" />
          </mxGeometry>
        </mxCell>
        <mxCell id="eobiDZNOSRTVQZis-g1B-1" value="&amp;lt;&amp;lt;include&amp;gt;&amp;gt;" style="edgeLabel;html=1;align=center;verticalAlign=middle;resizable=0;points=[];" parent="-ey-kE-NINVphvTozE8o-11" vertex="1" connectable="0">
          <mxGeometry x="-0.2678" relative="1" as="geometry">
            <mxPoint x="15" as="offset" />
          </mxGeometry>
        </mxCell>
        <mxCell id="-ey-kE-NINVphvTozE8o-12" value="Redirect to selected&amp;nbsp;&lt;span style=&quot;background-color: initial;&quot;&gt;social media&lt;/span&gt;" style="ellipse;whiteSpace=wrap;html=1;" parent="1" vertex="1">
          <mxGeometry x="955" y="-70" width="122" height="80" as="geometry" />
        </mxCell>
        <mxCell id="-ey-kE-NINVphvTozE8o-13" value="&lt;font&gt;As a user,&amp;nbsp;&lt;/font&gt;&lt;div&gt;&lt;font&gt;I want to be able to visit&lt;/font&gt;&lt;/div&gt;&lt;div&gt;&lt;font&gt;&amp;nbsp;the developer&#39;s&amp;nbsp;&lt;/font&gt;&lt;/div&gt;&lt;div&gt;&lt;font&gt;social media accounts&lt;br&gt;&lt;/font&gt;&lt;/div&gt;" style="text;html=1;align=center;verticalAlign=middle;resizable=0;points=[];autosize=1;strokeColor=default;fillColor=none;strokeWidth=1;perimeterSpacing=0;" parent="1" vertex="1">
          <mxGeometry x="380" y="-65" width="150" height="70" as="geometry" />
        </mxCell>
        <mxCell id="-ey-kE-NINVphvTozE8o-14" value="Visitor" style="shape=umlActor;verticalLabelPosition=bottom;verticalAlign=top;html=1;outlineConnect=0;" parent="1" vertex="1">
          <mxGeometry x="555" y="100" width="42" height="80" as="geometry" />
        </mxCell>
        <mxCell id="-ey-kE-NINVphvTozE8o-15" value="Click mailing list button" style="ellipse;whiteSpace=wrap;html=1;" parent="1" vertex="1">
          <mxGeometry x="715" y="100" width="122" height="80" as="geometry" />
        </mxCell>
        <mxCell id="-ey-kE-NINVphvTozE8o-16" value="" style="endArrow=none;html=1;rounded=0;exitX=0.5;exitY=0.5;exitDx=0;exitDy=0;exitPerimeter=0;entryX=0;entryY=0.5;entryDx=0;entryDy=0;" parent="1" source="-ey-kE-NINVphvTozE8o-14" target="-ey-kE-NINVphvTozE8o-15" edge="1">
          <mxGeometry width="50" height="50" relative="1" as="geometry">
            <mxPoint x="715" y="320" as="sourcePoint" />
            <mxPoint x="765" y="270" as="targetPoint" />
          </mxGeometry>
        </mxCell>
        <mxCell id="-ey-kE-NINVphvTozE8o-17" value="&amp;lt;&amp;lt;include&amp;gt;&amp;gt;" style="endArrow=open;endSize=12;dashed=1;html=1;rounded=0;exitX=1;exitY=0.5;exitDx=0;exitDy=0;entryX=0;entryY=0.5;entryDx=0;entryDy=0;" parent="1" source="-ey-kE-NINVphvTozE8o-15" target="-ey-kE-NINVphvTozE8o-18" edge="1">
          <mxGeometry width="160" relative="1" as="geometry">
            <mxPoint x="855" y="139.5" as="sourcePoint" />
            <mxPoint x="955" y="140" as="targetPoint" />
          </mxGeometry>
        </mxCell>
        <mxCell id="-ey-kE-NINVphvTozE8o-18" value="Open mailing SignUp popup" style="ellipse;whiteSpace=wrap;html=1;" parent="1" vertex="1">
          <mxGeometry x="955" y="100" width="122" height="80" as="geometry" />
        </mxCell>
        <mxCell id="-ey-kE-NINVphvTozE8o-19" value="&lt;font&gt;As a user,&amp;nbsp;&lt;/font&gt;&lt;span style=&quot;background-color: initial;&quot;&gt;I want to&amp;nbsp;&lt;/span&gt;&lt;div&gt;&lt;font&gt;subscribe/unsubscribe&amp;nbsp;&lt;/font&gt;&lt;/div&gt;&lt;div&gt;&lt;font&gt;to/from the developer&#39;s&amp;nbsp;&lt;/font&gt;&lt;/div&gt;&lt;div&gt;&lt;font&gt;mailing list to&amp;nbsp;&lt;/font&gt;&lt;/div&gt;&lt;div&gt;&lt;font&gt;get/stop getting updates&lt;/font&gt;&lt;/div&gt;&lt;div&gt;&lt;font&gt;about their games&lt;/font&gt;&lt;/div&gt;" style="text;html=1;align=center;verticalAlign=middle;resizable=0;points=[];autosize=1;strokeColor=default;fillColor=none;strokeWidth=1;perimeterSpacing=0;" parent="1" vertex="1">
          <mxGeometry x="380" y="90" width="150" height="100" as="geometry" />
        </mxCell>
        <mxCell id="-ey-kE-NINVphvTozE8o-20" value="&amp;lt;&amp;lt;extend&amp;gt;&amp;gt;" style="endArrow=open;endSize=12;dashed=1;html=1;rounded=0;exitX=0;exitY=0.5;exitDx=0;exitDy=0;entryX=1;entryY=1;entryDx=0;entryDy=0;" parent="1" source="-ey-kE-NINVphvTozE8o-21" target="-ey-kE-NINVphvTozE8o-15" edge="1">
          <mxGeometry width="160" relative="1" as="geometry">
            <mxPoint x="895" y="210" as="sourcePoint" />
            <mxPoint x="835" y="200" as="targetPoint" />
          </mxGeometry>
        </mxCell>
        <mxCell id="-ey-kE-NINVphvTozE8o-21" value="Unsubscribe from mailing list" style="ellipse;whiteSpace=wrap;html=1;" parent="1" vertex="1">
          <mxGeometry x="895" y="210" width="122" height="80" as="geometry" />
        </mxCell>
        <mxCell id="-ey-kE-NINVphvTozE8o-443" value="&amp;lt;&amp;lt;extend&amp;gt;&amp;gt;" style="endArrow=open;endSize=12;dashed=1;html=1;rounded=0;exitX=0;exitY=0.5;exitDx=0;exitDy=0;entryX=1;entryY=1;entryDx=0;entryDy=0;" parent="1" source="-ey-kE-NINVphvTozE8o-444" target="-ey-kE-NINVphvTozE8o-6" edge="1">
          <mxGeometry width="160" relative="1" as="geometry">
            <mxPoint x="1017.22" y="-216.52" as="sourcePoint" />
            <mxPoint x="965" y="-270" as="targetPoint" />
          </mxGeometry>
        </mxCell>
        <mxCell id="-ey-kE-NINVphvTozE8o-444" value="Link to purchase game" style="ellipse;whiteSpace=wrap;html=1;" parent="1" vertex="1">
          <mxGeometry x="982" y="-230" width="122" height="80" as="geometry" />
        </mxCell>
        <mxCell id="-ey-kE-NINVphvTozE8o-445" value="&amp;lt;&amp;lt;include&amp;gt;&amp;gt;" style="endArrow=open;endSize=12;dashed=1;html=1;rounded=0;exitX=1;exitY=0.5;exitDx=0;exitDy=0;entryX=0;entryY=0.5;entryDx=0;entryDy=0;" parent="1" source="-ey-kE-NINVphvTozE8o-444" target="-ey-kE-NINVphvTozE8o-446" edge="1">
          <mxGeometry width="160" relative="1" as="geometry">
            <mxPoint x="1204" y="50" as="sourcePoint" />
            <mxPoint x="1322" y="50" as="targetPoint" />
          </mxGeometry>
        </mxCell>
        <mxCell id="-ey-kE-NINVphvTozE8o-446" value="Redirect to selected p&lt;span style=&quot;background-color: initial;&quot;&gt;urchase site&lt;/span&gt;" style="ellipse;whiteSpace=wrap;html=1;" parent="1" vertex="1">
          <mxGeometry x="1190" y="-250" width="122" height="80" as="geometry" />
        </mxCell>
        <mxCell id="-ey-kE-NINVphvTozE8o-447" value="&amp;lt;&amp;lt;include&amp;gt;&amp;gt;" style="endArrow=open;endSize=12;dashed=1;html=1;rounded=0;entryX=0;entryY=0.5;entryDx=0;entryDy=0;exitX=1;exitY=0.5;exitDx=0;exitDy=0;" parent="1" source="-ey-kE-NINVphvTozE8o-6" target="-ey-kE-NINVphvTozE8o-448" edge="1">
          <mxGeometry width="160" relative="1" as="geometry">
            <mxPoint x="965" y="-350" as="sourcePoint" />
            <mxPoint x="1103" y="-360" as="targetPoint" />
          </mxGeometry>
        </mxCell>
        <mxCell id="-ey-kE-NINVphvTozE8o-448" value="Show game details" style="ellipse;whiteSpace=wrap;html=1;" parent="1" vertex="1">
          <mxGeometry x="1077" y="-360" width="122" height="80" as="geometry" />
        </mxCell>
        <mxCell id="-ey-kE-NINVphvTozE8o-449" value="&amp;lt;&amp;lt;extend&amp;gt;&amp;gt;" style="endArrow=open;endSize=12;dashed=1;html=1;rounded=0;exitX=0;exitY=0;exitDx=0;exitDy=0;entryX=0;entryY=1;entryDx=0;entryDy=0;" parent="1" source="-ey-kE-NINVphvTozE8o-450" target="-ey-kE-NINVphvTozE8o-6" edge="1">
          <mxGeometry x="0.0146" width="160" relative="1" as="geometry">
            <mxPoint x="931.22" y="-105.51999999999998" as="sourcePoint" />
            <mxPoint x="1095" y="-180" as="targetPoint" />
            <mxPoint as="offset" />
          </mxGeometry>
        </mxCell>
        <mxCell id="-ey-kE-NINVphvTozE8o-450" value="Game trailer video" style="ellipse;whiteSpace=wrap;html=1;" parent="1" vertex="1">
          <mxGeometry x="833" y="-210" width="122" height="80" as="geometry" />
        </mxCell>
        <mxCell id="Rw1Y2w8v4eciPm4eazxM-1" value="&lt;font style=&quot;font-size: 50px;&quot; data-font-src=&quot;https://fonts.googleapis.com/css?family=Poppins&quot; face=&quot;Poppins&quot;&gt;&lt;u style=&quot;&quot;&gt;&lt;b style=&quot;&quot;&gt;Use Case Diagram&lt;/b&gt;&lt;/u&gt;&lt;/font&gt;" style="text;html=1;align=center;verticalAlign=middle;resizable=0;points=[];autosize=1;strokeColor=none;fillColor=none;horizontal=1;labelPosition=center;verticalLabelPosition=middle;labelBackgroundColor=none;labelBorderColor=none;textShadow=0;" vertex="1" parent="1">
          <mxGeometry x="500" y="-480" width="490" height="70" as="geometry" />
        </mxCell>
        <mxCell id="Rw1Y2w8v4eciPm4eazxM-2" value="Add visitor email to database if email entered is correct" style="ellipse;whiteSpace=wrap;html=1;" vertex="1" parent="1">
          <mxGeometry x="1140" y="40" width="122" height="80" as="geometry" />
        </mxCell>
        <mxCell id="Rw1Y2w8v4eciPm4eazxM-3" value="&amp;lt;&amp;lt;extend&amp;gt;&amp;gt;" style="endArrow=open;endSize=12;dashed=1;html=1;rounded=0;exitX=0;exitY=0.5;exitDx=0;exitDy=0;entryX=1;entryY=0;entryDx=0;entryDy=0;" edge="1" parent="1" source="Rw1Y2w8v4eciPm4eazxM-2" target="-ey-kE-NINVphvTozE8o-18">
          <mxGeometry width="160" relative="1" as="geometry">
            <mxPoint x="1135" y="260" as="sourcePoint" />
            <mxPoint x="1059" y="178" as="targetPoint" />
          </mxGeometry>
        </mxCell>
      </root>
    </mxGraphModel>
  </diagram>
</mxfile>
